<svg width="400" height="176" viewBox="0 0 400 176" fill="none" xmlns="http://www.w3.org/2000/svg">
<path d="M176.405 58.8384C176.405 62.7325 175.417 66.1971 173.441 69.2322C171.465 72.2387 168.616 74.5866 164.894 76.276C161.172 77.9367 156.805 78.767 151.795 78.767C147.614 78.767 144.107 78.4807 141.272 77.908C138.437 77.3067 135.488 76.276 132.424 74.8157V59.6974C135.66 61.3582 139.024 62.661 142.517 63.6058C146.011 64.5221 149.218 64.9802 152.138 64.9802C154.658 64.9802 156.505 64.5507 157.679 63.6917C158.853 62.8041 159.44 61.6731 159.44 60.2987C159.44 59.4397 159.196 58.6953 158.709 58.0654C158.251 57.4068 157.493 56.7482 156.433 56.0897C155.402 55.4311 152.625 54.0854 148.101 52.0524C144.006 50.1913 140.928 48.3874 138.867 46.6408C136.834 44.8942 135.316 42.8898 134.314 40.6278C133.341 38.3658 132.854 35.6886 132.854 32.5963C132.854 26.8124 134.958 22.3027 139.167 19.0672C143.376 15.8316 149.16 14.2139 156.519 14.2139C163.019 14.2139 169.647 15.7171 176.405 18.7236L171.208 31.8232C165.338 29.1317 160.27 27.7859 156.004 27.7859C153.799 27.7859 152.195 28.1725 151.193 28.9456C150.191 29.7187 149.69 30.6779 149.69 31.8232C149.69 33.0544 150.32 34.1568 151.58 35.1303C152.868 36.1038 156.333 37.8791 161.974 40.456C167.385 42.8898 171.136 45.5098 173.226 48.3158C175.345 51.0932 176.405 54.6008 176.405 58.8384Z" fill="#E1E1E6"/>
<path d="M231.681 35.0873C231.681 42.1024 229.605 47.5284 225.453 51.3652C221.33 55.1734 215.46 57.0775 207.844 57.0775H203.076V77.908H186.111V15.1158H207.844C215.775 15.1158 221.731 16.8481 225.711 20.3127C229.691 23.7773 231.681 28.7022 231.681 35.0873ZM203.076 43.2478H206.169C208.717 43.2478 210.736 42.5319 212.225 41.1003C213.742 39.6686 214.501 37.693 214.501 35.1732C214.501 30.9356 212.153 28.8167 207.457 28.8167H203.076V43.2478Z" fill="#E1E1E6"/>
<path d="M280.214 77.908L277.121 66.1399H256.72L253.542 77.908H234.902L255.389 14.8581H278.023L298.768 77.908H280.214ZM273.599 52.2242L270.894 41.9163C270.264 39.6257 269.491 36.6622 268.574 33.0258C267.687 29.3894 267.1 26.7838 266.813 25.209C266.556 26.6692 266.04 29.0744 265.267 32.4245C264.523 35.7745 262.848 42.3745 260.242 52.2242H273.599Z" fill="#E1E1E6"/>
<path d="M333.557 28.1295C329.52 28.1295 326.37 29.7902 324.108 33.1117C321.846 36.4045 320.715 40.9571 320.715 46.7696C320.715 58.8528 325.311 64.8943 334.502 64.8943C337.279 64.8943 339.971 64.5078 342.576 63.7347C345.182 62.9616 347.802 62.031 350.436 60.943V75.2881C345.196 77.6074 339.269 78.767 332.655 78.767C323.178 78.767 315.905 76.0183 310.837 70.5207C305.797 65.0232 303.278 57.0775 303.278 46.6837C303.278 40.184 304.495 34.4717 306.928 29.5469C309.391 24.622 312.913 20.8424 317.494 18.2082C322.104 15.5453 327.515 14.2139 333.729 14.2139C340.515 14.2139 347 15.6885 353.185 18.6377L347.988 31.995C345.669 30.9069 343.35 29.9907 341.03 29.2462C338.711 28.5017 336.22 28.1295 333.557 28.1295Z" fill="#E1E1E6"/>
<path d="M400 77.908H362.72V15.1158H400V28.7308H379.685V38.6092H398.497V52.2242H379.685V64.0783H400V77.908Z" fill="#E1E1E6"/>
<path d="M180.914 123.048C180.914 130.063 178.838 135.489 174.687 139.326C170.564 143.134 164.694 145.038 157.077 145.038H152.31V165.869H135.345V103.076H157.077C165.009 103.076 170.964 104.809 174.944 108.273C178.924 111.738 180.914 116.663 180.914 123.048ZM152.31 131.208H155.402C157.951 131.208 159.969 130.493 161.458 129.061C162.976 127.629 163.735 125.654 163.735 123.134C163.735 118.896 161.387 116.777 156.691 116.777H152.31V131.208Z" fill="#E1E1E6"/>
<path d="M190.922 165.869V103.076H207.887V152.168H232.067V165.869H190.922Z" fill="#E1E1E6"/>
<path d="M280.643 165.869L277.551 154.101H257.15L253.972 165.869H235.331L255.818 102.819H278.453L299.197 165.869H280.643ZM274.029 140.185L271.323 129.877C270.693 127.586 269.92 124.623 269.004 120.986C268.116 117.35 267.529 114.744 267.243 113.17C266.985 114.63 266.47 117.035 265.697 120.385C264.952 123.735 263.277 130.335 260.672 140.185H274.029Z" fill="#E1E1E6"/>
<path d="M365.812 165.869H343.564L320.629 121.631H320.243C320.787 128.589 321.059 133.9 321.059 137.565V165.869H306.026V103.076H328.188L351.037 146.713H351.295C350.894 140.385 350.694 135.303 350.694 131.466V103.076H365.812V165.869Z" fill="#E1E1E6"/>
<path d="M45.5456 0.724085C27.7985 17.7978 17.0289 46.7129 18.5807 73.3607C6.78036 85.5806 7.21522e-05 102.176 7.30344e-05 119.372C-0.00736962 120.366 0.554554 121.283 1.44396 121.732C2.3408 122.181 3.40882 122.088 4.20891 121.491L20.6052 109.237L20.8173 112.982C20.8954 114.373 22.049 115.457 23.4483 115.457L71.2824 115.457C72.0044 115.457 72.663 115.164 73.1431 114.685C73.5859 114.243 73.8725 113.646 73.9097 112.978L74.1218 109.234L90.5181 121.487C91.3181 122.084 92.3824 122.047 93.2719 121.606C93.4988 121.491 93.7035 121.339 93.8859 121.157C94.4143 120.63 94.7232 119.862 94.7269 119.123C94.7269 102.164 87.9466 85.5694 76.1462 73.3495C77.6869 46.6609 66.9992 17.6791 49.1814 0.720373C48.1654 -0.240743 46.5653 -0.240741 45.5456 0.724085ZM60.5203 49.856C60.5203 53.4704 59.0466 56.7508 56.6613 59.1295C54.2759 61.5081 50.9862 62.9776 47.3616 62.9776C40.1087 62.9739 34.2067 57.0885 34.2029 49.856C34.2029 42.6198 40.105 36.7344 47.3616 36.7344C54.6182 36.7344 60.524 42.6235 60.5203 49.856Z" fill="#825DE3"/>
<path d="M31.0998 140.572C31.0998 148.513 43.6221 171.902 45.0474 174.541C45.5051 175.391 46.3982 175.918 47.3621 175.921C48.0766 175.921 48.739 175.639 49.2265 175.153C49.4051 174.975 49.5577 174.771 49.6842 174.541C51.1095 171.902 63.6318 148.513 63.6318 140.572C63.6318 131.628 56.3342 124.351 47.3658 124.351C38.3936 124.355 31.1035 131.632 31.0998 140.572Z" fill="#825DE3"/>
</svg>
