<svg width="133" height="16" viewBox="0 0 133 16" fill="none" xmlns="http://www.w3.org/2000/svg">
<path d="M10.9974 11.0605C10.9974 12.0257 10.7504 12.8845 10.2564 13.6367C9.76235 14.3819 9.04996 14.9639 8.11919 15.3826C7.18842 15.7942 6.09655 16 4.84359 16C3.79826 16 2.92119 15.929 2.21237 15.7871C1.50355 15.6381 0.766096 15.3826 0 15.0206V11.2735C0.809055 11.6851 1.65033 12.008 2.52382 12.2422C3.39731 12.4693 4.19921 12.5828 4.92951 12.5828C5.55957 12.5828 6.02137 12.4764 6.31492 12.2635C6.60847 12.0435 6.75525 11.7631 6.75525 11.4225C6.75525 11.2096 6.69439 11.0251 6.57267 10.8689C6.45812 10.7057 6.26838 10.5425 6.00347 10.3792C5.74572 10.216 5.05122 9.88246 3.91998 9.37858C2.89613 8.91728 2.12645 8.47017 1.61095 8.03726C1.10261 7.60435 0.723137 7.10756 0.472545 6.54691C0.229113 5.98625 0.107397 5.32269 0.107397 4.55622C0.107397 3.12264 0.63364 2.00488 1.68613 1.20293C2.73861 0.400976 4.18489 0 6.02495 0C7.65022 0 9.30771 0.372588 10.9974 1.11776L9.69792 4.3646C8.23016 3.69749 6.96288 3.36394 5.89608 3.36394C5.34477 3.36394 4.94383 3.45975 4.69323 3.65136C4.44264 3.84298 4.31734 4.08073 4.31734 4.3646C4.31734 4.66977 4.47486 4.943 4.78989 5.1843C5.11208 5.42559 5.97841 5.8656 7.38889 6.50432C8.74209 7.10756 9.68002 7.75693 10.2027 8.45243C10.7325 9.14083 10.9974 10.0102 10.9974 11.0605Z" fill="#E1E1E6"/>
<path d="M24.8194 5.17365C24.8194 6.9124 24.3003 8.25726 23.2621 9.20825C22.2311 10.1521 20.7633 10.6241 18.8588 10.6241H17.6667V15.7871H13.4246V0.223553H18.8588C20.8421 0.223553 22.3313 0.652916 23.3265 1.51164C24.3218 2.37037 24.8194 3.59104 24.8194 5.17365ZM17.6667 7.19627H18.44C19.0772 7.19627 19.582 7.01885 19.9543 6.66401C20.3338 6.30916 20.5235 5.81947 20.5235 5.19494C20.5235 4.1446 19.9364 3.61943 18.7622 3.61943H17.6667V7.19627Z" fill="#E1E1E6"/>
<path d="M36.9552 15.7871L36.1819 12.8703H31.0806L30.2859 15.7871H25.6248L30.7477 0.159681H36.4075L41.5947 15.7871H36.9552ZM35.3013 9.42116L34.6247 6.86627C34.4672 6.29851 34.2738 5.56398 34.0447 4.66267C33.8228 3.76137 33.676 3.11555 33.6044 2.72522C33.54 3.08716 33.4111 3.6833 33.2178 4.51364C33.0316 5.34398 32.6128 6.97982 31.9612 9.42116H35.3013Z" fill="#E1E1E6"/>
<path d="M50.2938 3.4491C49.2843 3.4491 48.4967 3.86072 47.9311 4.68397C47.3655 5.50011 47.0827 6.62852 47.0827 8.06919C47.0827 11.0641 48.2318 12.5615 50.5301 12.5615C51.2246 12.5615 51.8976 12.4657 52.5492 12.2741C53.2007 12.0825 53.8558 11.8519 54.5145 11.5822V15.1377C53.2043 15.7126 51.7222 16 50.0683 16C47.6984 16 45.8798 15.3187 44.6126 13.9561C43.3524 12.5935 42.7224 10.6241 42.7224 8.0479C42.7224 6.4369 43.0267 5.02107 43.6353 3.8004C44.251 2.57973 45.1316 1.64294 46.2772 0.99002C47.4299 0.330007 48.7831 0 50.3368 0C52.0337 0 53.6554 0.365491 55.2019 1.09647L53.9024 4.40719C53.3224 4.1375 52.7425 3.9104 52.1625 3.72588C51.5826 3.54136 50.9597 3.4491 50.2938 3.4491Z" fill="#E1E1E6"/>
<path d="M66.9081 15.7871H57.5861V0.223553H66.9081V3.59814H61.8282V6.04657H66.5322V9.42116H61.8282V12.3593H66.9081V15.7871Z" fill="#E1E1E6"/>
<path d="M86.7657 5.17365C86.7657 6.9124 86.2467 8.25726 85.2085 9.20825C84.1775 10.1521 82.7097 10.6241 80.8052 10.6241H79.6131V15.7871H75.371V0.223553H80.8052C82.7885 0.223553 84.2777 0.652916 85.2729 1.51164C86.2681 2.37037 86.7657 3.59104 86.7657 5.17365ZM79.6131 7.19627H80.3864C81.0236 7.19627 81.5284 7.01885 81.9007 6.66401C82.2801 6.30916 82.4699 5.81947 82.4699 5.19494C82.4699 4.1446 81.8828 3.61943 80.7086 3.61943H79.6131V7.19627Z" fill="#E1E1E6"/>
<path d="M89.2681 15.7871V0.223553H93.5103V12.3912H99.5567V15.7871H89.2681Z" fill="#E1E1E6"/>
<path d="M111.703 15.7871L110.93 12.8703H105.829L105.034 15.7871H100.373L105.496 0.159681H111.156L116.343 15.7871H111.703ZM110.049 9.42116L109.373 6.86627C109.215 6.29851 109.022 5.56398 108.793 4.66267C108.571 3.76137 108.424 3.11555 108.352 2.72522C108.288 3.08716 108.159 3.6833 107.966 4.51364C107.78 5.34398 107.361 6.97982 106.709 9.42116H110.049Z" fill="#E1E1E6"/>
<path d="M133 15.7871H127.437L121.702 4.82236H121.605C121.741 6.54691 121.809 7.86338 121.809 8.77179V15.7871H118.05V0.223553H123.592L129.306 11.0393H129.37C129.27 9.47084 129.22 8.21113 129.22 7.26015V0.223553H133V15.7871Z" fill="#E1E1E6"/>
</svg>
