<svg width="50" height="93" viewBox="0 0 50 93" fill="none" xmlns="http://www.w3.org/2000/svg">
<path d="M24.0405 0.382196C14.673 9.39427 8.98844 24.6566 9.80753 38.7222C3.5789 45.1723 3.80843e-05 53.9317 3.855e-05 63.0084C-0.00388993 63.5333 0.292712 64.0171 0.762168 64.2541C1.23555 64.4911 1.79929 64.4422 2.2216 64.1268L10.8761 57.6591L10.988 59.6355C11.0293 60.37 11.6382 60.9419 12.3768 60.9419L37.6252 60.9419C38.0063 60.9419 38.354 60.7872 38.6074 60.5345C38.8411 60.3014 38.9923 59.9861 39.012 59.6335L39.124 57.6572L47.7784 64.1248C48.2007 64.4402 48.7625 64.4206 49.232 64.1875C49.3518 64.1268 49.4598 64.0465 49.5561 63.9505C49.835 63.6724 49.998 63.2669 50 62.8771C50 53.9258 46.4211 45.1664 40.1925 38.7163C41.0057 24.6292 35.3644 9.33159 25.9596 0.380237C25.4233 -0.127072 24.5787 -0.127071 24.0405 0.382196ZM31.9446 26.3157C31.9446 28.2235 31.1668 29.955 29.9077 31.2105C28.6486 32.466 26.9122 33.2417 24.999 33.2417C21.1707 33.2397 18.0554 30.1332 18.0535 26.3157C18.0535 22.4962 21.1687 19.3896 24.999 19.3896C28.8293 19.3896 31.9466 22.4981 31.9446 26.3157Z" fill="#825DE3"/>
<path d="M16.4155 74.1984C16.4155 78.39 23.0252 90.7359 23.7775 92.1285C24.0191 92.577 24.4905 92.8552 24.9993 92.8571C25.3764 92.8571 25.726 92.7083 25.9834 92.4517C26.0776 92.3577 26.1582 92.2499 26.225 92.1285C26.9773 90.7358 33.587 78.39 33.587 74.1984C33.587 69.4779 29.7351 65.6368 25.0012 65.6368C20.2654 65.6388 16.4175 69.4798 16.4155 74.1984Z" fill="#825DE3"/>
</svg>
